<?xml version="1.0" encoding="UTF-8"?>
<svg xmlns="http://www.w3.org/2000/svg" viewBox="0 0 720 224" width="720" height="224" role="img" aria-labelledby="ttl">
<title id="ttl">Outcomes of 500 problems: 307 resolved, 74 percent of produced patches passed</title>
<style>
text{font-family:system-ui, -apple-system, 'Segoe UI', Roboto, Helvetica, Arial, sans-serif}
.t{fill:#2c2c2a}.m{fill:#6b6a64}.big{fill:#2c2c2a;font-weight:600}.h{fill:#2c2c2a;font-weight:600}
.axis{stroke:#d3d1c7}.track{fill:#eceae2}
@media (prefers-color-scheme:dark){
.t{fill:#e8e6dd}.m{fill:#a8a69c}.big{fill:#e8e6dd}.h{fill:#e8e6dd}
.axis{stroke:#45453f}.track{fill:#2e2e2b}
}
</style>
<text class="h" x="20" y="26" font-size="15">What happened to all 500 problems</text>
<text class="big" x="20" y="64" font-size="28">61%</text>
<text class="m" x="20" y="82" font-size="12">resolved overall · 307 / 500</text>
<text class="big" x="250" y="64" font-size="28">74%</text>
<text class="m" x="250" y="82" font-size="12">when it produced a patch · 307 / 413</text>
<rect x="20.0" y="104" width="417.5" height="36" fill="#1D9E75"/>
<rect x="437.5" y="104" width="144.2" height="36" fill="#D85A30"/>
<rect x="581.7" y="104" width="92.5" height="36" fill="#888780"/>
<rect x="674.2" y="104" width="25.8" height="36" fill="#B4B2A9"/>
<line x1="20" y1="148" x2="581.7" y2="148" class="axis" stroke-width="1"/>
<line x1="581.7" y1="148" x2="700" y2="148" class="axis" stroke-width="1"/>
<text class="m" x="20" y="164" font-size="12">produced a patch · 413</text>
<text class="m" x="700" y="164" font-size="12" text-anchor="end">no patch · 87</text>
<rect x="20" y="187" width="11" height="11" rx="2" fill="#1D9E75"/><text class="t" x="37" y="196" font-size="13">Resolved · 307</text>
<rect x="165" y="187" width="11" height="11" rx="2" fill="#D85A30"/><text class="t" x="182" y="196" font-size="13">Unresolved · 106</text>
<rect x="330" y="187" width="11" height="11" rx="2" fill="#888780"/><text class="t" x="347" y="196" font-size="13">Empty · 68</text>
<rect x="455" y="187" width="11" height="11" rx="2" fill="#B4B2A9"/><text class="t" x="472" y="196" font-size="13">Error · 19</text>
</svg>
