<?xml version="1.0" encoding="UTF-8"?>
<svg xmlns="http://www.w3.org/2000/svg" viewBox="0 0 720 306" width="720" height="306" role="img" aria-labelledby="ttl">
<title id="ttl">Why 68 runs produced no patch: 41 turn budget, 20 context, 4 format, 3 timeout</title>
<style>
text{font-family:system-ui, -apple-system, 'Segoe UI', Roboto, Helvetica, Arial, sans-serif}
.t{fill:#2c2c2a}.m{fill:#6b6a64}.big{fill:#2c2c2a;font-weight:600}.h{fill:#2c2c2a;font-weight:600}
.axis{stroke:#d3d1c7}.track{fill:#eceae2}
@media (prefers-color-scheme:dark){
.t{fill:#e8e6dd}.m{fill:#a8a69c}.big{fill:#e8e6dd}.h{fill:#e8e6dd}
.axis{stroke:#45453f}.track{fill:#2e2e2b}
}
</style>
<text class="h" x="20" y="26" font-size="15">Why 68 runs produced no patch</text>
<text class="big" x="20" y="66" font-size="28">60%</text>
<text class="m" x="158" y="66" font-size="13">of empties are the agent hitting its turn limit, not the model</text>
<text class="t" x="20" y="117" font-size="13">Turn budget hit</text>
<rect x="210" y="100" width="410" height="26" rx="4" class="track"/>
<rect x="210" y="100" width="247.2" height="26" rx="4" fill="#185FA5"/>
<text class="m" x="640" y="117" font-size="13">41 · 60%</text>
<text class="t" x="20" y="159" font-size="13">Context window hit</text>
<rect x="210" y="142" width="410" height="26" rx="4" class="track"/>
<rect x="210" y="142" width="120.6" height="26" rx="4" fill="#888780"/>
<text class="m" x="640" y="159" font-size="13">20 · 29%</text>
<text class="t" x="20" y="201" font-size="13">Format error</text>
<rect x="210" y="184" width="410" height="26" rx="4" class="track"/>
<rect x="210" y="184" width="24.1" height="26" rx="4" fill="#B4B2A9"/>
<text class="m" x="640" y="201" font-size="13">4 · 6%</text>
<text class="t" x="20" y="243" font-size="13">Timeout</text>
<rect x="210" y="226" width="410" height="26" rx="4" class="track"/>
<rect x="210" y="226" width="18.1" height="26" rx="4" fill="#C7C5BC"/>
<text class="m" x="640" y="243" font-size="13">3 · 4%</text>
<text class="m" x="20" y="288" font-size="12">Both are the agent running out of room. The context hits fill the full 256K window, not a VRAM ceiling.</text>
</svg>
